<svg xmlns="http://www.w3.org/2000/svg" width="178.87" height="39.077" viewBox="0 0 178.87 39.077">
  <g id="Group_73" data-name="Group 73" transform="translate(-139 -24.397)">
    <g id="Group_17" data-name="Group 17" transform="translate(139 25.564)">
      <path id="Path_15" data-name="Path 15" d="M225.865,244.392v26.07H198.837a11.132,11.132,0,0,1-10.991-9.456h9.895v-.012h18.223V242.009h9.664A12.073,12.073,0,0,1,225.865,244.392Z" transform="translate(-187.723 -232.553)" fill="#fff"/>
      <path id="Path_16" data-name="Path 16" d="M225.55,239.919H211.012v.011H197.6v18.987h-9.809a10.8,10.8,0,0,1-.093-1.427V230.463h26.07A12.085,12.085,0,0,1,225.55,239.919Z" transform="translate(-187.696 -230.463)" fill="#fff"/>
    </g>
    <g id="Group_16" data-name="Group 16" transform="translate(198.291 24.397)">
      <path id="Path_17" data-name="Path 17" d="M277.732,235.9a10.865,10.865,0,0,1,4.5,4.139,11.712,11.712,0,0,1,1.6,6.148,12.372,12.372,0,0,1-1.646,6.415,11.3,11.3,0,0,1-4.623,4.333,14.738,14.738,0,0,1-6.9,1.548h-6.831v11.765h-7.795V234.422h15.009a14.544,14.544,0,0,1,6.681,1.477Zm-3.44,14.67a6.319,6.319,0,0,0-.025-8.207,5.478,5.478,0,0,0-4.09-1.549h-6.34v11.281h6.339a5.511,5.511,0,0,0,4.118-1.526Z" transform="translate(-256.043 -231.661)" fill="#fff"/>
      <path id="Path_18" data-name="Path 18" d="M295.877,238.582a4.6,4.6,0,0,1,.024-6.294,4.315,4.315,0,0,1,3.147-1.234,4.232,4.232,0,0,1,3.123,1.234,4.291,4.291,0,0,1,1.235,3.171,4.223,4.223,0,0,1-4.358,4.357A4.294,4.294,0,0,1,295.877,238.582Zm-.605,4.768h7.5v26.291h-7.5Z" transform="translate(-263.029 -231.051)" fill="#fff"/>
      <path id="Path_19" data-name="Path 19" d="M308.533,272.357l9.877-13.46-9.3-12.829h8.957l4.792,6.682,4.793-6.682h8.909l-9.3,12.829,9.926,13.46h-8.956l-5.375-7.507-5.373,7.5Z" transform="translate(-265.542 -233.769)" fill="#fff"/>
      <path id="Path_20" data-name="Path 20" d="M363.417,246.759a9.72,9.72,0,0,1,4.066,3.6,9.916,9.916,0,0,1,1.453,5.374v16.509H363.56l-1.884-3.44a9.922,9.922,0,0,1-3.172,2.832,8.8,8.8,0,0,1-4.429,1.089,9.614,9.614,0,0,1-6.705-2.3,7.741,7.741,0,0,1-2.539-6.028,7.319,7.319,0,0,1,1.4-4.406,9.043,9.043,0,0,1,3.971-3,15.316,15.316,0,0,1,5.906-1.065,26.654,26.654,0,0,1,5.229.532v-.726a4.341,4.341,0,0,0-1.7-3.22,6.66,6.66,0,0,0-4.114-1.138,9.363,9.363,0,0,0-5.858,1.889l-3.194-4.454a16.325,16.325,0,0,1,4.914-2.518,20.427,20.427,0,0,1,6.077-.819,13.35,13.35,0,0,1,5.947,1.284Zm-3.533,19.027a5.881,5.881,0,0,0,1.547-4.238,23.549,23.549,0,0,0-4.358-.484,5.453,5.453,0,0,0-3.218.871,2.709,2.709,0,0,0-1.235,2.324,2.922,2.922,0,0,0,.944,2.324,3.888,3.888,0,0,0,2.64.819A4.918,4.918,0,0,0,359.884,265.785Z" transform="translate(-272.111 -233.661)" fill="#fff"/>
      <path id="Path_21" data-name="Path 21" d="M392.814,246.541a13.589,13.589,0,0,1,5.519-1.065L397.8,252.4a10.835,10.835,0,0,0-6.342,1.7,5.16,5.16,0,0,0-2.42,4.406v13.75h-7.506V245.96h5.379l1.985,3.631a9.716,9.716,0,0,1,3.917-3.049Z" transform="translate(-278.754 -233.662)" fill="#fff"/>
    </g>
  </g>
</svg>
